<?xml version="1.0" encoding="utf-8"?>
<svg id="svg2" viewBox="14 -8 236 236" preserveAspectRatio="xMinYMin slice" xmlns="http://www.w3.org/2000/svg">
  <g id="g3777" transform="matrix(1, 0, 0, 1, -75.12133789062501, -164.87959289550784)">
    <g transform="matrix(1.0018127,0,0,1.0235366,-12.55623,-9.5618785)" id="g3779" style="font-size:40px;font-style:normal;font-weight:500;line-height:125%;letter-spacing:0px;word-spacing:0px;fill:#000000;fill-opacity:1;stroke:#000000;stroke-width:1.00037885;stroke-miterlimit:4;stroke-opacity:1;stroke-dasharray:none;font-family:Sans;-inkscape-font-specification:Megrim Medium">
      <path id="path3781" style="font-size: 75px; font-variant-ligatures: normal; font-variant-caps: normal; font-stretch: normal; fill: rgb(0, 0, 0); stroke: rgb(0, 0, 0); stroke-miterlimit: 4; stroke-opacity: 1; stroke-dasharray: none; font-family: Megrim; stroke-width: 2.96245;" d="M 162.548 290.288 L 135.813 290.288 L 135.813 361.137 L 132.401 361.137 L 132.401 290.288 L 105.666 290.288 L 105.666 287.129 L 161.318 287.155 Z"/>
      <path id="path3783" style="font-size: 75px; font-variant-ligatures: normal; font-variant-caps: normal; font-stretch: normal; fill: rgb(255, 198, 0); fill-opacity: 1; stroke: rgb(255, 198, 0); stroke-miterlimit: 4; stroke-opacity: 1; stroke-dasharray: none; font-family: Megrim; stroke-width: 2.96245;" d="M 190.317 286.946 L 261.137 286.875 L 233.23 363.909 L 218.531 326.654 L 203.944 363.909 L 171.339 279.447 L 174.957 279.446 L 203.944 354.7 L 218.531 317.444 L 233.23 354.7 L 256.275 290.015 L 191.547 290.055 Z"/>
      <path style="fill: none; stroke-width: 6.91239;" d="M 134.276 267.226 L 134.276 198.186 L 303.888 198.186 L 303.888 364.197 L 134.276 364.197 L 134.276 286.713" id="rect3804"/>
    </g>
  </g>
</svg>