<?xml version="1.0" encoding="utf-8"?>
<svg id="svg2" viewBox="14 -8 236 236" preserveAspectRatio="xMinYMin slice" xmlns="http://www.w3.org/2000/svg">
  <defs id="defs4"/>
  <g id="g3777" transform="matrix(1, 0, 0, 1, -75.12133789062501, -164.87959289550784)">
    <g transform="matrix(1.0018127,0,0,1.0235366,-12.55623,-9.5618785)" id="g3779" style="font-size:40px;font-style:normal;font-weight:500;line-height:125%;letter-spacing:0px;word-spacing:0px;fill:#000000;fill-opacity:1;stroke:#000000;stroke-width:1.00037885;stroke-miterlimit:4;stroke-opacity:1;stroke-dasharray:none;font-family:Sans;-inkscape-font-specification:Megrim Medium">
      <path id="path3781" style="font-size:75px;font-variant:normal;font-stretch:normal;fill:#000000;stroke:#000000;stroke-width:1.67760849;stroke-miterlimit:4;stroke-opacity:1;stroke-dasharray:none;font-family:Megrim;-inkscape-font-specification:Megrim Medium" d="m 167.78817,279.71783 -30.7224,0 0,81.41873 -3.922,0 0,-81.41873 -30.72239,0 0,-3.63002 63.95305,0.0289 z"/>
      <path id="path3783" style="font-size:75px;font-variant:normal;font-stretch:normal;fill:#ffc600;fill-opacity:1;stroke:#ffc600;stroke-width:1.67760849;stroke-miterlimit:4;stroke-opacity:1;stroke-dasharray:none;font-family:Megrim;-inkscape-font-specification:Megrim Medium" d="m 199.60143,275.89825 81.88467,-0.0816 -32.2682,89.0695 -16.99537,-43.07622 -16.86463,43.07622 -37.69926,-97.65963 4.18347,-1.9e-4 33.51579,87.01181 16.86463,-43.07627 16.99537,43.07622 26.64665,-74.79143 -74.84054,0.0468 z"/>
      <path style="fill:none;stroke:#000000;stroke-width:5.67354631" d="m 135.27394,267.22633 0,-69.0404 169.61142,0 0,166.01152 -169.61142,0 0,-83.00576" id="rect3804"/>
    </g>
  </g>
</svg>